<?xml version="1.0" encoding="UTF-8"?>
<!-- Created with Inkscape (http://www.inkscape.org/) -->
<svg width="245" height="43" version="1.1" viewBox="0 0 245 43" xmlns="http://www.w3.org/2000/svg" xmlns:cc="http://creativecommons.org/ns#" xmlns:dc="http://purl.org/dc/elements/1.1/" xmlns:rdf="http://www.w3.org/1999/02/22-rdf-syntax-ns#">
 <metadata>
  <rdf:RDF>
   <cc:Work rdf:about="">
    <dc:format>image/svg+xml</dc:format>
    <dc:type rdf:resource="http://purl.org/dc/dcmitype/StillImage"/>
    <dc:title/>
   </cc:Work>
  </rdf:RDF>
 </metadata>
 <path d="m3 40.566c1.8217-0.99335 4.6995-6.0712 10.606-18.715 5.9266-12.686 8.6155-17.427 10-17.631 1.5958-0.23589 2.9193 2.4346 8.4159 16.982 4.9439 13.084 7.0656 17.532 8.7677 18.381 4.1655 2.0767 3.5688 2.4174-4.2341 2.4174-7.5957 0-7.7264-0.041332-5.5927-1.7691l2.1848-1.7691-3.9054-9.9618-6.7113-0.29774c-7.5199-0.33361-8.9058 0.36507-11.089 5.5903-2.0027 4.7931-1.8376 5.6652 1.3078 6.9081 2.3688 0.93604 1.7104 1.0965-4.75 1.1576-6.8686 0.06497-7.2895-0.04383-5-1.2923zm24.424-16.816c-0.39088-1.2375-1.7256-4.95-2.966-8.25l-2.2553-6-2.6898 6c-5.1729 11.539-5.3787 10.5 2.0791 10.5 6.3289 0 6.5194-0.07352 5.8319-2.25zm24.576 17.25c0-0.55 0.6199-1 1.3776-1 2.7467 0 3.381-2.7649 4.0693-17.738l0.70052-15.238-2.5737-1.1726c-3.4421-1.5683-3.2553-2.187 1.1763-3.8957 2.0625-0.79525 4.1424-1.6165 4.6221-1.8249 0.48266-0.20977 0.6895 5.4817 0.4632 12.745-0.2249 7.2182-0.16735 13.106 0.12789 13.083 0.29524-0.02256 2.4493-1.7712 4.7868-3.8859 4.3972-3.978 5.3459-6.0731 2.75-6.0731-0.825 0-1.5-0.45-1.5-1 0-1.3102 12.69-1.3102 13.5 0 0.33992 0.55-0.19602 1.003-1.191 1.0066-2.111 0.0077-5.5193 2.1632-10.801 6.8309l-3.7766 3.3375 6.3164 6.373c3.7602 3.7939 7.5107 6.6354 9.2676 7.0212 3.7874 0.83186 1.686 2.3935-3.2505 2.4155-2.9367 0.01309-4.2777-0.89183-9.2391-6.2347-3.1921-3.4375-5.8087-6.5875-5.8146-7-6e-3 -0.4125-0.48438-0.75-1.0631-0.75-0.64111 0-0.93416 2.0513-0.75 5.25 0.24919 4.3283 0.6973 5.4233 2.5523 6.2371 3.9365 1.727 2.451 2.5129-4.75 2.5129-4 0-7-0.42857-7-1zm35 0c0-0.55 0.65917-1 1.4648-1 2.4945 0 3.5352-3.5408 3.5352-12.028 0-7.3184-0.20614-8.2133-2-8.6824-2.7456-0.71798-2.5072-1.4939 1.0874-3.5397 5.3248-3.0307 5.4431-2.7981 5.0711 9.9699l-0.34149 11.722 5.683 4.5477-7.25 5e-3c-4.17 0.002824-7.25-0.4199-7.25-0.99507zm20.2-0.2c-0.66-0.66-1.1978-2.5725-1.195-4.25l5e-3 -3.05 2.245 2.7817c2.8738 3.5608 8.6227 4.6978 11.121 2.1995 0.94819-0.94819 1.5859-2.441 1.4171-3.3174-0.28711-1.4908-1.7315-2.5984-10.011-7.6768-4.726-2.8988-5.008-7.2775-0.70199-10.901 2.7011-2.2728 3.9664-2.6361 8.3034-2.3838l5.1166 0.29764 0.25199 4 0.252 4-1.5273-2.7373c-1.7986-3.2237-5.6474-4.4616-9.0504-2.9111-4.2632 1.9424-2.357 6.8662 3.3291 8.5992 3.8784 1.182 8.2446 5.5326 8.2446 8.215 0 1.4166-1.2588 3.7468-2.9231 5.4111-2.5059 2.5059-3.6904 2.9231-8.3 2.9231-2.9573 0-5.9169-0.54-6.5769-1.2zm34.8 0.67525c0-0.28861 1.1008-0.94327 2.4462-1.4548 2.9428-1.1189 3.8056-4.716 3.363-14.02-0.27919-5.8689-0.52768-6.531-2.5592-6.8196-3.2083-0.45565-2.7557-1.4239 1.6034-3.4304 5.0778-2.3374 5.142-2.3125 5.177 2 0.0266 3.2795 0.16839 3.4991 1.1303 1.75 1.8426-3.3505 5.1667-5.4544 8.6551-5.4778 4.4995-0.03017 6.8205 1.3924 7.6475 4.6873 0.65224 2.5987 0.75556 2.6447 1.7453 0.77638 1.8899-3.5676 5.1415-5.4406 9.4848-5.4636 6.1975-0.03286 7.3067 2.1101 7.3067 14.117 0 9.4113 0.0802 9.7539 2.75 11.746l2.75 2.0517-7.809 0.03168c-4.9588 0.020117-7.5834-0.33331-7.191-0.96832 0.33992-0.55 1.2506-1 2.0238-1 2.38 0 3.4762-3.5454 3.4762-11.243 0-9.8085-1.8364-12.14-8.2318-10.45-3.8518 1.0178-5.7682 5.3566-5.7682 13.06 0 5.89 0.24505 6.6491 2.75 8.518l2.75 2.0517-7.809 0.03168c-4.9588 0.020117-7.5834-0.33331-7.191-0.96832 0.33992-0.55 1.2776-1 2.0838-1 2.1577 0 3.4162-4.2771 3.4162-11.611 0-5.5276-0.35693-6.8373-2.4277-8.9081-2.1601-2.1601-2.7782-2.3055-5.6076-1.3192-4.1474 1.4458-5.9647 5.8329-5.9647 14.399 0 5.7847 0.25386 6.6921 2 7.1488 4.2553 1.1128 1.6852 2.2897-5 2.2897-3.85 0-7-0.23614-7-0.52475zm60.11-0.87076c-3.4078-1.8888-5.0338-5.3797-5.0746-10.894-0.06983-9.439 5.4557-15.71 13.842-15.71 3.128 0 4.4297 0.57543 6.0972 2.6953 1.2193 1.55 1.9937 3.7809 1.8226 5.25-0.36561 3.1388-4.8369 4.9155-12.579 4.9982-3.5809 0.03827-5.4556 0.51034-5.8224 1.4662-0.72212 1.8818 2.1422 7.2729 4.5484 8.5606 3.1808 1.7023 8.5791 1.1921 11.473-1.0844 4.091-3.218 4.3114-1.4152 0.31553 2.5807-2.981 2.981-4.2134 3.5278-7.8833 3.4979-2.3925-0.01949-5.4255-0.63152-6.7399-1.3601zm10.621-16.697c4.0239-1.5218 0.32214-6.9078-4.7477-6.9078-2.8939 0-6.35 3.1729-7.4698 6.8578-0.70809 2.33-0.6534 2.3492 4.6351 1.6257 2.9434-0.40264 6.3555-1.1117 7.5825-1.5758zm16.778 16.102c-1.5695-1.7343-1.7301-3.2765-1.2494-12l0.55158-10.01h-2.4056c-3.0234 0-3.033-0.71867-0.041-3.0722 1.3006-1.023 2.9302-3.2253 3.6213-4.8939 1.7398-4.2003 3.0141-3.7919 3.0141 0.96611v4h4.5c5.6894 0 5.9248 1.7809 0.28985 2.1925-4.9568 0.36203-5.534 1.5693-5.6902 11.903-0.0805 5.3252 0.2716 6.931 1.8287 8.3401 1.9538 1.7681 5.104 1.4943 7.8217-0.67998 2.2252-1.7802 1.4045 1.023-0.93856 3.2059-2.9082 2.7094-8.8714 2.7352-11.302 0.04893zm-186.06-17.097c-1.0305-1.6674 1.2872-3.5795 2.6667-2.2 1.1539 1.1539 0.43172 3.2871-1.1129 3.2871-0.48508 0-1.1843-0.48921-1.5539-1.0871zm90 0c-1.0305-1.6674 1.2872-3.5795 2.6667-2.2 1.1539 1.1539 0.43172 3.2871-1.1129 3.2871-0.48508 0-1.1843-0.48921-1.5538-1.0871zm-41.295-16.798c-2.2651-1.4355-0.92078-4.5818 2.1069-4.9313 2.3313-0.26908 2.7414 0.051571 2.7414 2.143 0 1.3527-0.7118 2.7326-1.5818 3.0664-1.9132 0.73418-1.6313 0.75818-3.2666-0.27815z"/>
</svg>
